<?xml version="1.0" standalone="no"?>
<!DOCTYPE svg PUBLIC "-//W3C//DTD SVG 20010904//EN"
 "http://www.w3.org/TR/2001/REC-SVG-20010904/DTD/svg10.dtd">
<svg version="1.0" xmlns="http://www.w3.org/2000/svg"
 width="1080.000000pt" height="1080.000000pt" viewBox="0 0 1080.000000 1080.000000"
 preserveAspectRatio="xMidYMid meet">
<metadata>
Created by potrace 1.11, written by Peter Selinger 2001-2013
</metadata>
<g transform="translate(0.000000,1080.000000) scale(0.100000,-0.100000)"
fill="#000000" stroke="none">
<path d="M5515 7879 c-142 -14 -270 -46 -405 -100 -309 -126 -551 -280 -732
-465 -96 -99 -137 -156 -197 -269 -29 -55 -93 -167 -142 -250 -154 -258 -214
-326 -276 -310 -25 6 -25 8 -20 71 2 35 3 64 0 64 -32 0 -114 -105 -149 -191
-20 -49 -27 -88 -31 -168 l-6 -103 58 46 c49 41 63 47 96 45 36 -3 42 1 94 58
67 75 105 90 159 68 l38 -16 39 45 c61 70 100 90 159 82 43 -6 50 -4 60 14 12
22 78 70 96 70 17 0 24 -59 12 -103 -16 -53 -71 -105 -165 -156 l-82 -44 -26
-68 c-29 -75 -65 -113 -117 -124 -70 -14 -86 -25 -102 -73 -19 -54 -20 -76 -5
-103 10 -19 10 -19 37 -1 56 40 93 52 189 62 102 12 158 23 183 40 12 8 9 15
-19 44 -33 34 -34 37 -21 62 23 43 80 79 180 113 110 39 261 101 341 142 92
46 195 176 240 303 20 59 22 127 4 132 -5 1 -30 -38 -54 -89 -101 -209 -258
-287 -338 -168 -29 43 -29 63 2 130 58 124 232 248 427 305 224 65 634 61 884
-9 187 -52 441 -150 542 -210 175 -102 384 -304 525 -507 199 -287 320 -810
282 -1223 -22 -241 -72 -494 -123 -615 -65 -158 -200 -363 -360 -548 -248
-289 -706 -530 -1122 -591 -492 -73 -949 67 -1270 389 -220 220 -342 519 -365
900 -6 83 -3 131 14 230 23 137 26 190 11 190 -10 0 -19 -32 -46 -160 -27
-126 -24 -402 6 -574 36 -212 97 -384 184 -520 20 -32 33 -56 27 -55 -23 9
-164 145 -243 235 -237 273 -384 585 -454 964 -27 145 -29 171 -29 415 0 230
3 273 23 368 40 196 22 215 -27 27 -58 -224 -71 -320 -71 -515 0 -270 22 -413
102 -650 100 -297 260 -563 463 -768 304 -309 642 -496 1050 -583 124 -27 143
-28 405 -29 250 0 285 2 389 23 346 72 719 234 916 399 39 32 88 72 110 88 22
16 47 38 55 49 8 10 36 42 61 70 313 348 475 698 529 1146 23 196 7 654 -30
823 -21 94 -68 254 -80 272 -4 6 -15 32 -25 60 -68 183 -216 425 -361 589
-205 232 -527 444 -806 529 -402 124 -669 157 -978 121 l-55 -6 3 51 c2 28 0
51 -5 51 -4 0 -31 -16 -58 -36 -47 -34 -137 -84 -150 -84 -4 0 -5 15 -3 32 4
43 -18 47 -68 13 -40 -28 -148 -85 -160 -85 -4 0 -4 18 0 40 8 52 -4 52 -74
-1 -55 -41 -160 -99 -180 -99 -21 0 53 89 168 202 129 126 216 186 432 293
206 104 356 156 500 177 95 13 101 15 80 28 -17 11 -19 11 -145 -1z m-1015
-904 c0 -41 -213 -225 -235 -203 -13 12 24 75 70 120 42 41 133 98 157 98 4 0
8 -7 8 -15z"/>
<path d="M4768 5734 c-36 -83 -158 -116 -229 -63 -19 14 -40 29 -46 33 -10 6
-13 -55 -13 -288 l0 -295 68 -4 67 -3 -66 -2 c-53 -2 -68 -6 -73 -19 -3 -10
-8 -23 -11 -28 -3 -6 11 -17 30 -24 l35 -12 0 -345 c0 -299 -2 -344 -15 -344
-8 0 -15 -9 -15 -19 0 -11 7 -26 15 -35 11 -11 15 -39 15 -111 0 -90 -2 -98
-24 -116 -13 -10 -27 -30 -30 -44 -8 -33 8 -95 33 -122 13 -13 16 -24 10 -30
-6 -6 25 -12 88 -16 142 -10 205 -9 198 3 -3 6 -1 10 4 10 6 0 11 -4 11 -10 0
-5 16 -10 36 -10 24 0 33 4 28 11 -7 12 30 10 119 -7 l37 -7 0 67 c0 60 -11
85 -23 54 -6 -13 -35 16 -58 55 -8 14 -6 17 15 17 16 0 30 8 37 21 15 29 25
229 12 229 -6 0 -16 13 -23 29 l-12 29 -31 -18 c-43 -24 -80 -12 -71 24 3 13
1 27 -5 30 -14 9 6 63 31 80 14 10 27 12 44 6 14 -6 24 -6 24 -1 0 5 -13 12
-30 16 -45 10 -78 42 -112 109 -42 84 -68 100 -68 43 0 -19 -3 -37 -6 -40 -11
-11 -83 77 -84 101 0 20 4 22 23 17 42 -13 109 -45 165 -79 32 -19 83 -39 115
-46 l57 -11 0 -53 c0 -28 -5 -57 -11 -63 -6 -6 -10 -15 -8 -20 2 -5 30 17 62
49 53 54 55 58 31 58 -16 0 -45 17 -77 45 -48 42 -55 45 -90 39 -24 -4 -43 -1
-52 6 -23 19 -19 88 8 127 19 29 26 32 55 27 23 -5 38 -2 51 10 18 16 22 14
79 -38 33 -31 65 -56 71 -56 6 0 18 11 27 25 13 20 19 23 30 14 11 -9 19 -8
32 5 21 18 32 12 32 -16 0 -11 -5 -16 -11 -13 -9 6 -38 -20 -39 -35 0 -3 16
-14 35 -24 19 -11 43 -32 53 -47 l18 -29 13 44 c12 43 13 43 42 33 16 -6 29
-14 29 -17 -1 -13 -17 -28 -35 -32 -18 -3 -17 -7 14 -35 31 -29 33 -33 26 -80
-6 -47 -4 -52 38 -109 25 -32 54 -67 64 -77 19 -16 21 -16 37 1 24 27 12 49
-24 44 -46 -7 -48 20 -6 77 l36 49 -43 -5 c-58 -7 -81 15 -74 70 7 50 27 72
81 87 50 14 60 10 139 -49 26 -19 47 -43 47 -53 0 -26 -12 -22 -51 18 -60 63
-71 59 -27 -11 22 -36 39 -68 36 -70 -2 -3 -19 0 -37 5 -29 8 -31 7 -26 -11 4
-10 2 -19 -3 -19 -7 0 -6 -10 0 -28 15 -38 2 -95 -28 -132 l-26 -30 85 -112
c107 -142 128 -162 161 -154 16 4 28 16 32 30 3 13 16 34 29 46 l24 22 65 -22
c78 -26 116 -53 116 -84 0 -33 -32 -70 -81 -94 l-41 -21 33 -5 c19 -3 152 -7
297 -10 200 -3 261 -2 255 7 -33 56 -88 117 -118 131 -33 16 -38 16 -54 2 -10
-9 -21 -13 -24 -9 -11 10 24 43 45 43 10 0 18 6 18 12 0 14 -116 128 -131 128
-5 0 -29 -16 -55 -35 -55 -42 -72 -43 -103 -4 -21 27 -22 32 -8 46 13 13 21
13 53 3 22 -7 44 -17 50 -21 7 -6 16 -3 25 7 7 9 21 19 31 23 16 6 2 29 -94
158 -105 141 -115 151 -140 146 -27 -5 -28 -4 -28 34 0 33 -12 57 -76 146 -67
95 -153 187 -175 187 -4 0 -13 -16 -20 -35 -7 -19 -16 -35 -19 -35 -6 0 -40
54 -40 63 0 3 10 7 22 9 13 2 29 15 36 30 11 24 11 31 -5 53 -14 18 -28 25
-58 25 -39 2 -39 2 -12 12 26 9 27 11 12 28 -15 16 -11 22 55 83 l72 65 61
-24 c33 -13 62 -23 63 -21 2 1 -22 16 -52 32 -30 16 -54 32 -54 36 0 18 35 17
72 -2 40 -21 68 -20 29 1 -39 20 -22 28 77 35 112 8 164 27 67 24 -33 -1 -68
1 -77 6 -12 4 -18 3 -18 -5 0 -19 -44 -7 -48 13 -5 23 13 42 196 214 82 76
150 132 159 131 9 -2 18 3 21 11 3 8 0 11 -7 7 -21 -13 -11 10 14 34 32 30 31
36 -2 35 -19 0 -29 6 -31 18 -3 15 1 17 23 11 25 -6 26 -5 15 13 -7 11 -20 24
-30 29 -70 38 -67 38 -98 16 -27 -20 -30 -20 -45 -4 -21 20 -22 3 -2 -24 23
-30 18 -34 -37 -34 -49 0 -55 3 -75 34 -18 27 -29 34 -69 40 -59 8 -174 7
-195 -2 -8 -4 -121 -119 -251 -257 -322 -342 -361 -379 -397 -372 -15 3 -33 1
-38 -4 -7 -7 -13 64 -18 224 l-7 234 -44 -5 c-43 -4 -47 -3 -90 42 -34 36 -43
51 -35 60 6 7 21 12 34 10 19 -4 77 31 66 40 -2 1 -44 10 -93 18 l-88 15 -20
-43z m1480 -39 c11 -11 -9 -16 -37 -10 -42 9 -41 29 1 21 17 -3 34 -8 36 -11z
m-437 -52 c16 -10 29 -20 29 -24 0 -6 -72 -19 -78 -14 -5 4 9 55 15 55 3 0 18
-8 34 -17z m284 -54 c6 -19 0 -38 -9 -28 -10 12 -16 49 -7 49 5 0 13 -9 16
-21z m85 -14 c0 -14 -4 -25 -10 -25 -5 0 -10 11 -10 25 0 14 5 25 10 25 6 0
10 -11 10 -25z m-360 -8 c0 -2 -11 -14 -24 -26 l-23 -22 -5 25 c-5 23 -2 26
23 26 16 0 29 -1 29 -3z m19 -94 c2 -2 -8 -3 -22 -3 -21 0 -27 5 -27 22 0 21
0 21 23 2 12 -10 24 -20 26 -21z m-60 -79 c3 -16 1 -17 -13 -5 -19 16 -21 34
-3 29 6 -3 14 -13 16 -24z m31 -19 c0 -8 -7 -15 -15 -15 -9 0 -12 6 -9 15 4 8
10 15 15 15 5 0 9 -7 9 -15z m-910 -260 c0 -11 -11 -15 -40 -15 -29 0 -40 4
-40 15 0 11 11 15 40 15 29 0 40 -4 40 -15z m-200 -5 c0 -5 -11 -10 -25 -10
-14 0 -25 5 -25 10 0 6 11 10 25 10 14 0 25 -4 25 -10z m500 0 c0 -5 -11 -10
-25 -10 -14 0 -25 5 -25 10 0 6 11 10 25 10 14 0 25 -4 25 -10z m-121 -27
c-13 -16 -25 -30 -26 -32 -2 -2 -3 10 -3 27 0 28 3 32 27 32 l26 0 -24 -27z
m111 -30 c0 -5 -9 -22 -19 -39 l-19 -31 141 -7 c78 -4 144 -9 146 -12 3 -2 0
-9 -6 -15 -9 -9 -9 -16 0 -30 17 -27 5 -31 -41 -15 l-41 15 -51 -70 c-47 -63
-54 -68 -73 -58 -12 7 -24 13 -26 15 -2 2 13 22 33 44 24 27 35 47 31 59 -4
13 0 17 17 17 14 -1 23 5 23 14 0 23 -126 21 -152 -2 -19 -17 -21 -17 -43 7
-13 14 -18 25 -11 25 8 0 10 7 6 21 -5 15 -4 19 4 15 6 -4 23 6 37 23 25 29
44 40 44 24z m70 -22 c0 -23 -5 -30 -26 -35 -15 -4 -29 -4 -32 -1 -5 4 46 65
55 65 2 0 3 -13 3 -29z m-560 -1 c0 -5 -6 -10 -14 -10 -8 0 -18 5 -21 10 -3 6
3 10 14 10 12 0 21 -4 21 -10z m110 0 c0 -5 -18 -10 -40 -10 -22 0 -40 5 -40
10 0 6 18 10 40 10 22 0 40 -4 40 -10z m80 0 c0 -5 -9 -10 -20 -10 -11 0 -20
5 -20 10 0 6 9 10 20 10 11 0 20 -4 20 -10z m480 0 c0 -5 -9 -10 -20 -10 -11
0 -20 5 -20 10 0 6 9 10 20 10 11 0 20 -4 20 -10z m-790 -70 c0 -5 -9 -10 -20
-10 -11 0 -20 5 -20 10 0 6 9 10 20 10 11 0 20 -4 20 -10z m90 -30 c0 -29 -4
-40 -15 -40 -11 0 -15 11 -15 40 0 29 4 40 15 40 11 0 15 -11 15 -40z m340 30
c0 -5 -13 -10 -30 -10 -16 0 -30 5 -30 10 0 6 14 10 30 10 17 0 30 -4 30 -10z
m590 0 c0 -5 -9 -10 -20 -10 -11 0 -20 5 -20 10 0 6 9 10 20 10 11 0 20 -4 20
-10z m-510 -77 c-1 -25 -14 -53 -26 -53 -7 0 -11 7 -9 15 3 8 7 22 10 30 4 15
25 21 25 8z m85 -105 c-4 -13 -11 -27 -16 -32 -15 -16 -20 0 -10 28 13 32 35
36 26 4z m275 -28 c0 -16 -4 -30 -10 -30 -5 0 -10 14 -10 30 0 17 5 30 10 30
6 0 10 -13 10 -30z m-67 -5 c-5 -13 -23 -22 -23 -11 0 15 14 35 21 31 4 -3 6
-12 2 -20z m32 -12 c-8 -32 -13 -39 -21 -30 -10 9 5 57 17 57 7 0 9 -10 4 -27z
m-65 -33 c0 -11 -4 -20 -10 -20 -5 0 -10 9 -10 20 0 11 5 20 10 20 6 0 10 -9
10 -20z m510 -13 c0 -28 -4 -33 -35 -43 -31 -10 -37 -9 -45 6 -10 18 3 35 45
58 31 17 35 15 35 -21z m-111 -67 c-10 -27 -29 -42 -29 -22 1 24 14 52 26 52
10 0 11 -6 3 -30z m-946 -117 c13 -21 26 -43 30 -49 11 -19 -64 -64 -95 -57
-23 4 -25 8 -16 27 7 17 16 22 34 18 20 -4 24 0 24 21 0 34 -17 43 -41 21 -10
-9 -19 -14 -19 -10 0 13 41 66 51 66 5 0 19 -17 32 -37z m1097 -38 c10 -13 9
-15 -8 -15 -22 0 -36 13 -25 24 10 10 20 7 33 -9z m183 -110 c15 -31 27 -57
27 -59 0 -3 -18 5 -40 17 -32 17 -39 26 -35 42 2 11 5 28 5 38 0 31 15 18 43
-38z m-1383 -4 c0 -36 3 -40 36 -51 34 -12 79 -10 116 5 13 5 18 -1 24 -32 4
-21 11 -46 16 -55 11 -22 -13 -24 -72 -6 -30 10 -40 18 -40 34 0 27 -12 31
-70 24 l-45 -5 33 -18 c38 -21 41 -33 7 -39 -15 -3 -25 -1 -24 6 3 28 -3 36
-26 36 -21 0 -25 5 -25 31 0 43 -14 64 -52 80 l-33 14 60 6 c33 3 68 6 78 7
13 2 17 -6 17 -37z m1290 -31 c0 -4 -9 -15 -20 -25 -19 -18 -20 -17 -20 3 0
11 -3 28 -6 37 -6 14 -3 14 20 4 14 -7 26 -15 26 -19z m-1436 4 c13 -5 14 -9
5 -20 -16 -20 -29 -17 -29 6 0 22 1 23 24 14z m1296 -25 c0 -10 -12 -11 -34
-3 -25 10 -19 22 9 16 14 -2 25 -8 25 -13z m-146 -35 c9 -4 16 -18 16 -33 l0
-26 -20 25 c-28 36 -27 46 4 34z m126 -9 c-12 -15 -30 -12 -30 6 0 5 10 9 21
9 18 0 19 -2 9 -15z m-195 -35 c3 -5 -3 -10 -14 -10 -11 0 -23 5 -26 10 -3 6
3 10 14 10 11 0 23 -4 26 -10z m395 -69 l54 -19 -35 -21 c-19 -11 -38 -20 -43
-18 -8 3 -39 77 -33 77 2 0 27 -9 57 -19z m-1340 -16 c20 -24 6 -28 -15 -5
-10 11 -13 20 -8 20 6 0 16 -7 23 -15z"/>
<path d="M6290 5772 c0 -5 18 -22 40 -37 38 -27 41 -27 65 -11 45 30 29 51
-43 54 -34 2 -62 -1 -62 -6z"/>
<path d="M5450 5590 c0 -12 48 -25 58 -16 8 9 -18 26 -40 26 -10 0 -18 -4 -18
-10z"/>
<path d="M5100 5442 c0 -12 67 -28 77 -18 10 10 -2 16 -41 23 -23 3 -36 2 -36
-5z"/>
<path d="M6256 5273 c-10 -25 10 -39 23 -15 10 19 6 32 -10 32 -4 0 -10 -8
-13 -17z"/>
<path d="M6150 5245 c-11 -14 -6 -35 8 -35 4 0 13 9 19 19 10 15 9 20 -2 25
-7 2 -19 -1 -25 -9z"/>
<path d="M6300 4802 c0 -14 46 -53 53 -45 4 3 -3 17 -15 30 -22 23 -38 30 -38
15z"/>
<path d="M6105 4780 c-4 -6 -11 -8 -16 -5 -5 4 -9 2 -9 -4 0 -17 18 -22 27 -8
4 8 15 17 23 20 12 4 12 6 -2 6 -9 1 -20 -4 -23 -9z"/>
<path d="M5040 4716 c0 -15 18 -31 26 -23 7 7 -7 37 -17 37 -5 0 -9 -6 -9 -14z"/>
<path d="M4940 4564 c-9 -10 -10 -18 -3 -25 8 -8 14 -5 22 9 13 25 -2 38 -19
16z"/>
<path d="M4967 4515 c-9 -23 11 -28 23 -5 8 16 8 20 -4 20 -7 0 -16 -7 -19
-15z"/>
<path d="M5156 4457 c15 -49 24 -67 33 -67 6 0 38 18 72 40 42 27 69 38 82 34
13 -4 17 -2 13 5 -11 18 -51 13 -71 -9 -23 -25 -50 -25 -98 -1 l-38 19 7 -21z"/>
<path d="M4912 4392 c-26 -20 -20 -32 15 -32 18 0 23 5 23 25 0 29 -7 31 -38
7z"/>
<path d="M5890 4010 c0 -5 14 -10 30 -10 17 0 30 5 30 10 0 6 -13 10 -30 10
-16 0 -30 -4 -30 -10z"/>
<path d="M5883 3853 c9 -2 23 -2 30 0 6 3 -1 5 -18 5 -16 0 -22 -2 -12 -5z"/>
<path d="M5378 3013 c6 -2 18 -2 25 0 6 3 1 5 -13 5 -14 0 -19 -2 -12 -5z"/>
<path d="M6170 2626 c0 -155 2 -170 23 -206 l22 -40 86 0 85 0 22 39 c20 35
22 53 22 175 l0 136 -35 0 -35 0 0 -135 0 -135 -60 0 -60 0 0 133 0 133 -35
34 -35 34 0 -168z"/>
<path d="M3690 2555 l0 -175 35 0 c33 0 35 2 35 32 0 18 13 52 31 80 l32 49
23 -35 c20 -29 24 -47 24 -112 l0 -78 35 34 c31 30 35 40 35 82 0 39 -7 61
-39 110 l-39 62 39 57 c21 32 39 60 39 63 0 4 -17 6 -37 6 -36 0 -40 -4 -88
-77 l-50 -77 -3 77 -3 77 -34 0 -35 0 0 -175z"/>
<path d="M4043 2690 c-21 -36 -23 -51 -23 -206 l0 -168 35 34 c30 29 35 40 35
82 l0 48 60 0 60 0 0 -50 0 -50 35 0 35 0 0 136 c0 122 -2 140 -22 175 l-22
39 -85 0 -86 0 -22 -40z m167 -85 l0 -45 -60 0 -60 0 0 45 0 45 60 0 60 0 0
-45z"/>
<path d="M4380 2523 l0 -207 35 34 c32 31 35 39 35 92 l0 58 60 0 c68 0 80
-12 80 -79 0 -40 1 -41 35 -41 35 0 35 0 35 46 0 30 -8 59 -21 81 -21 33 -21
36 -5 69 20 44 20 45 -5 105 l-21 49 -114 0 -114 0 0 -207z m195 92 c0 -30 0
-30 -62 -33 l-63 -3 0 36 0 36 63 -3 c62 -3 62 -3 62 -33z"/>
<path d="M4722 2690 c19 -34 28 -40 56 -40 l32 0 0 -167 0 -167 35 34 35 34 0
133 0 133 33 0 c27 0 36 6 55 40 l23 40 -146 0 -146 0 23 -40z"/>
<path d="M5070 2523 l0 -207 35 34 35 34 0 173 0 173 -35 0 -35 0 0 -207z"/>
<path d="M5230 2523 l0 -207 35 34 c25 24 35 43 35 64 0 16 14 51 31 78 l32
49 23 -35 c17 -24 24 -49 24 -80 0 -46 0 -46 35 -46 l35 0 0 50 c0 42 -7 62
-39 112 l-39 62 39 57 c21 32 39 60 39 63 0 4 -17 6 -37 6 -36 0 -40 -4 -88
-77 l-50 -77 -3 77 -3 77 -34 0 -35 0 0 -207z"/>
<path d="M5810 2523 l0 -207 35 34 c32 31 35 39 35 92 l0 58 74 0 75 0 25 56
c31 68 31 63 5 125 l-21 49 -114 0 -114 0 0 -207z m195 92 c0 -30 0 -30 -62
-33 l-63 -3 0 36 0 36 63 -3 c62 -3 62 -3 62 -33z"/>
<path d="M6520 2523 l0 -207 35 34 c32 31 35 39 35 92 l0 58 60 0 c68 0 80
-12 80 -79 0 -40 1 -41 35 -41 35 0 35 0 35 46 0 30 -8 59 -21 81 -21 33 -21
36 -5 69 20 44 20 45 -5 105 l-21 49 -114 0 -114 0 0 -207z m195 92 c0 -30 0
-30 -62 -33 l-63 -3 0 36 0 36 63 -3 c62 -3 62 -3 62 -33z"/>
<path d="M6890 2523 l0 -207 35 34 35 34 0 173 0 173 -35 0 -35 0 0 -207z"/>
</g>
</svg>
